<svg id="Layer_1" data-name="Layer 1" xmlns="http://www.w3.org/2000/svg" xmlns:xlink="http://www.w3.org/1999/xlink" viewBox="0 0 1174.92 403.54"><defs><style>.cls-1{stroke-miterlimit:10;stroke-width:2px;fill:url(#linear-gradient);stroke:url(#linear-gradient-2);}</style><linearGradient id="linear-gradient" x1="588" y1="1.75" x2="588" y2="402.25" gradientUnits="userSpaceOnUse"><stop offset="0.37" stop-color="#fff" stop-opacity="0"/><stop offset="1" stop-color="#ffeb00" stop-opacity="0.2"/></linearGradient><linearGradient id="linear-gradient-2" x1="384.37" y1="-87.28" x2="784.92" y2="606.5" gradientUnits="userSpaceOnUse"><stop offset="0" stop-color="#81ff00"/><stop offset="1" stop-color="#ffeb00"/></linearGradient></defs><title>alisa su</title><path class="cls-1" d="M179.76,364.75c-11.5,11-28,27-38,37-16-12.5-36.5-27-46.5-34l-39.5,34c-14-11.5-36.5-28-54-39.5v-2c5.5-3.5,8.5-8,8.5-25v-56.5a421.45,421.45,0,0,0,44.5-24c-20.5-7.5-37.5-26.5-37.5-53.5,0-35,17-51,32.5-69.5,8-10,13-16.5,18.5-25,24,10.5,66,30,93.5,40v2c-6,4.5-8.5,11-8.5,23.5v179.5c4.5,4.5,20,13.5,25.5,11.5Zm-78-190.5c-21.5-13-31-19-41-19-9,0-31.5,6.5-31.5,46,0,26.5,23.5,48,56,48,4.5,0,10.5-1.5,16.5-3.5Zm0,174.5v-91.5c-5.5,2-11,3.5-17,3.5-7.5,0-16-2-22.5-4-2.5,4.5-3.5,12-3.5,21v70.5c8.5,5.5,15,11,24.5,16.5Zm181.5,15.5c-10,9.5-26.5,26-38.5,37.5-14.5-11-35-25-48-33.5v-2c6-2.5,8.5-9,8.5-24V45.75c0-12-1-20-5-25.5l2-1c7,2,17,10,21,20.5h1c6.5-17,21.5-33,39-38l1.5,1c-4,7-8,16-8,33.5v315.5c8,6,19.5,12,25.5,11.5Zm108.49.5-39,37c-11-8.5-33.5-24.5-47.5-33.5v-2c6.5-4,8.5-9.5,8.5-23.5v-186l-6.5-4c-10.5-6.5-14-6.5-19.5-6.5l-.5-2,39-37.5c11,8.5,32.5,24,47.5,34v2c-6,3.5-8.5,8.5-8.5,22v187.5c15.5,10,21,11,25.5,11Zm-63-283-16-17.5c14-14,47.5-50,56-62.5,4,5,14,26.5,18.5,38C375.25,49.75,344.75,71.75,328.75,81.75Zm227,170.5c-5.5,4-8.5,9-8.5,19v86.5c-26.5,10-55,25.5-82,44-14-10-33-20.5-50.5-24.5a52.61,52.61,0,0,0-2,15.5v7.5c-4.5-1.5-13-4-13-4,1.5-59.5,38.5-106,57.5-129-14.5-8-43.5-26-53-30v-2c5.5-3,8.5-8,8.5-18v-72.5c25.5-7.5,54-22.5,75-38,16,12.5,32.5,26,51,37,3-7,2.5-14,4.5-22.5,3,2.5,9,5,11,7.5-3,21-15,51-48.5,94l50,27.5Zm-59.5,114v-99l-15.5-8c-15,16.5-45.5,57.5-55,79.5,26.5,1.5,53.5,15.5,69.5,28Zm-30-226.5-2,1v79.5c4.5,2.5,13.5,7.5,18.5,9.5,12-12,28.5-35.5,36-50.5C498.25,169.25,476.25,149.75,466.25,139.75Zm277.5,225c-11.5,11-28,27-38,37-16-12.5-36.5-27-46.5-34l-39.5,34c-14-11.5-36.5-28-54-39.5v-2c5.5-3.5,8.5-8,8.5-25v-56.5a421.45,421.45,0,0,0,44.5-24c-20.5-7.5-37.5-26.5-37.5-53.5,0-35,17-51,32.5-69.5,8-10,13-16.5,18.5-25,24,10.5,66,30,93.5,40v2c-6,4.5-8.5,11-8.5,23.5v179.5c4.5,4.5,20,13.5,25.5,11.5Zm-78-190.5c-21.5-13-31-19-41-19-9,0-31.5,6.5-31.5,46,0,26.5,23.5,48,56,48,4.5,0,10.5-1.5,16.5-3.5Zm0,174.5v-91.5c-5.5,2-11,3.5-17,3.5-7.5,0-16-2-22.5-4-2.5,4.5-3.5,12-3.5,21v70.5c8.5,5.5,15,11,24.5,16.5Zm302-96.5c-5.5,4-8.5,9-8.5,19v86.5c-26.5,10-55,25.5-82,44-14-10-33-20.5-50.5-24.5a52.61,52.61,0,0,0-2,15.5v7.5c-4.5-1.5-13-4-13-4,1.5-59.5,38.5-106,57.5-129-14.5-8-43.5-26-53-30v-2c5.5-3,8.5-8,8.5-18v-72.5c25.5-7.5,54-22.5,75-38,16,12.5,32.5,26,51,37,3-7,2.5-14,4.5-22.5,3,2.5,9,5,11,7.5-3,21-15,51-48.5,94l50,27.5Zm-59.5,114v-99l-15.5-8c-15,16.5-45.5,57.5-55,79.5,26.5,1.5,53.5,15.5,69.5,28Zm-30-226.5-2,1v79.5c4.5,2.5,13.5,7.5,18.5,9.5,12-12,28.5-35.5,36-50.5C910.24,169.25,888.24,149.75,878.24,139.75Zm296,225c-14.5,13.5-25.5,24-38,37.5-16-12.5-31-23.5-45.5-33.5h-.5l-39.5,33.5c-16.5-11.5-39-27-57-38v-2c5.5-4,8.5-9.5,8.5-20V156.75c-8-6-19.5-12-25.5-11.5l-1-1c10-9.5,27-25,39-37.5,15,11.5,34.5,25.5,47.5,34v2c-6,3-8.5,9-8.5,24v180c9.5,8,17,15,23.5,19,0,0,16.5-14.5,19.5-17V154.25c-6-5-10.5-7.5-17-12.5v-.5c9.5-8.5,26.5-24,37-34.5,10,8.5,28,23,40,31.5v2c-6,3.5-8.5,9-8.5,25.5v186.5c9.5,7.5,18.5,11,25,11.5Z" transform="translate(-0.76 -0.07)"/></svg>